<svg version="1.0" xmlns="http://www.w3.org/2000/svg"
 width="532.000000pt" height="299.000000pt" viewBox="0 0 532.000000 299.000000"
 preserveAspectRatio="xMidYMid meet">

<g transform="translate(0.000000,299.000000) scale(0.100000,-0.100000)"
fill="#000000" stroke="none">
<path d="M685 2016 c-76 -34 -120 -128 -96 -208 17 -54 78 -115 126 -124 86
-16 165 27 199 108 59 142 -89 286 -229 224z"/>
<path d="M365 1813 c-31 -7 -72 -51 -79 -84 -12 -63 42 -129 106 -129 38 0 85
35 98 74 26 81 -43 157 -125 139z"/>
<path d="M1100 1813 c-41 -13 -61 -29 -76 -61 -21 -45 -6 -102 35 -131 78 -56
182 16 164 113 -6 28 -48 76 -69 76 -7 0 -18 2 -26 4 -7 3 -20 2 -28 -1z"/>
<path d="M1801 1748 c-12 -30 -45 -474 -36 -488 7 -12 91 -14 99 -2 2 4 8 90
12 190 4 100 10 182 13 182 4 0 22 -66 41 -147 l35 -148 60 -3 61 -3 33 138
c19 76 37 144 41 152 4 8 10 -44 14 -115 4 -71 9 -157 13 -192 l5 -63 52 3 51
3 -2 35 c-21 304 -37 466 -47 472 -6 4 -36 8 -66 8 -30 0 -60 -4 -66 -8 -11
-7 -56 -176 -70 -260 -9 -60 -20 -60 -34 1 -31 143 -54 234 -62 250 -7 13 -22
17 -74 17 -58 0 -65 -2 -73 -22z"/>
<path d="M4192 1753 c-5 -10 -44 -123 -87 -251 -49 -151 -74 -237 -67 -244 5
-5 29 -8 53 -6 44 3 44 3 59 56 l15 52 87 0 87 0 10 -36 c15 -54 38 -74 83
-74 25 0 41 5 44 15 3 8 -30 124 -73 257 l-79 243 -61 3 c-51 2 -63 0 -71 -15z
m78 -145 c6 -24 18 -66 26 -95 7 -28 14 -54 14 -57 0 -9 -110 -7 -110 2 -1 20
46 192 52 192 4 0 12 -19 18 -42z"/>
<path d="M4607 1747 c-53 -32 -77 -72 -77 -129 0 -64 33 -100 141 -152 94 -46
109 -62 91 -100 -10 -23 -18 -26 -61 -26 -27 0 -70 9 -97 20 -46 20 -48 20
-65 3 -30 -31 -32 -59 -7 -75 69 -45 194 -54 271 -20 58 26 87 70 87 133 0 74
-28 106 -142 161 -82 40 -98 51 -98 71 0 13 5 28 12 35 17 17 87 15 138 -3 53
-19 47 -20 65 15 24 46 19 56 -36 73 -77 25 -175 22 -222 -6z"/>
<path d="M4938 1763 c-10 -2 -18 -8 -18 -13 0 -4 30 -77 67 -162 63 -143 68
-159 73 -243 l5 -90 55 0 55 0 5 90 c5 83 10 102 73 249 74 173 74 176 4 176
-36 0 -39 -2 -61 -52 -13 -29 -34 -83 -47 -120 -23 -65 -39 -86 -39 -53 0 29
-70 200 -87 213 -17 12 -51 14 -85 5z"/>
<path d="M2400 1527 c0 -185 3 -237 14 -253 13 -17 29 -19 131 -22 64 -2 127
-1 140 2 35 9 55 34 55 67 l0 29 -115 0 -115 0 0 55 0 54 83 3 82 3 3 48 3 47
-86 0 -86 0 3 53 3 52 102 3 102 3 7 34 c3 18 3 38 -1 44 -4 7 -64 11 -166 11
l-159 0 0 -233z"/>
<path d="M2830 1528 c0 -128 4 -238 8 -244 17 -26 56 -34 162 -34 139 0 170
13 170 73 l0 27 -115 0 -115 0 0 55 0 55 78 0 c83 0 102 9 102 46 0 50 -7 54
-97 54 l-84 0 3 53 3 52 100 3 c108 3 115 7 115 60 l0 32 -165 0 -165 0 0
-232z"/>
<path d="M3210 1715 l0 -45 65 0 65 0 2 -207 3 -208 50 0 50 0 3 208 2 207 53
0 c62 0 77 11 77 57 l0 33 -185 0 -185 0 0 -45z"/>
<path d="M3642 1525 c3 -209 5 -236 21 -252 15 -16 36 -18 152 -18 148 0 159
4 171 63 l7 32 -117 0 -116 0 0 55 0 54 83 3 82 3 0 45 0 45 -82 3 -83 3 0 54
0 55 105 0 105 0 0 45 0 45 -166 0 -165 0 3 -235z"/>
<path d="M535 1620 c-11 -4 -32 -21 -46 -36 -47 -52 -285 -389 -291 -412 -4
-12 -2 -38 3 -57 14 -49 50 -65 149 -65 l80 0 0 198 c0 141 3 201 12 210 17
17 609 17 626 0 9 -9 12 -69 12 -210 l0 -198 80 0 c43 0 90 5 104 11 31 14 60
72 52 104 -3 12 -44 76 -91 141 -47 66 -114 158 -148 206 -38 54 -74 94 -94
103 -24 12 -73 15 -230 14 -109 0 -207 -4 -218 -9z"/>
<path d="M254 1560 c-18 -7 -174 -212 -203 -267 -15 -30 -14 -40 9 -63 14 -14
33 -20 63 -20 58 0 66 18 69 150 l3 105 77 3 77 3 30 41 c17 23 31 46 31 50 0
11 -129 9 -156 -2z"/>
<path d="M1100 1562 c0 -4 14 -27 31 -50 l30 -41 77 -3 77 -3 3 -105 c3 -129
12 -150 63 -150 51 0 69 8 80 37 11 31 7 38 -99 186 -48 67 -96 123 -110 128
-29 11 -152 12 -152 1z"/>
<path d="M716 1299 c-30 -24 -34 -57 -8 -89 37 -45 112 -15 112 45 0 24 -42
65 -65 65 -7 0 -24 -9 -39 -21z"/>
<path d="M440 1025 l0 -25 314 0 c278 0 315 2 320 16 3 9 4 20 0 25 -3 5 -142
9 -320 9 l-314 0 0 -25z"/>
</g>
</svg>